ffmpeg version 2.3.2-   http://johnvansickle.com/ffmpeg/    Copyright (c) 2000-2014 the FFmpeg developers
  built on Aug 13 2014 22:30:42 with gcc 4.8 (Debian 4.8.3-7)
  configuration: --enable-gpl --enable-version3 --disable-shared --disable-debug --enable-runtime-cpudetect --enable-libmp3lame --enable-libx264 --enable-libwebp --enable-libspeex --enable-libvorbis --enable-libvpx --enable-libfreetype --enable-fontconfig --enable-libxvid --enable-libopencore-amrnb --enable-libopencore-amrwb --enable-libtheora --enable-libvo-aacenc --enable-libvo-amrwbenc --enable-gray --enable-libopenjpeg --enable-libopus --disable-ffserver --enable-libass --enable-gnutls --cc=gcc-4.8
  libavutil      52. 92.100 / 52. 92.100
  libavcodec     55. 69.100 / 55. 69.100
  libavformat    55. 48.100 / 55. 48.100
  libavdevice    55. 13.102 / 55. 13.102
  libavfilter     4. 11.100 /  4. 11.100
  libswscale      2.  6.100 /  2.  6.100
  libswresample   0. 19.100 /  0. 19.100
  libpostproc    52.  3.100 / 52.  3.100
[rtsp @ 0x40bbba0] Could not find codec parameters for stream 1 (Audio: none, 8000 Hz, 1 channels): unknown codec
Consider increasing the value for the 'analyzeduration' and 'probesize' options
Guessed Channel Layout for  Input Stream #0.1 : mono
Input #0, rtsp, from 'rtsp://222.197.180.250:50000/video0.sdp':
  Metadata:
    title           : RTSP/RTP stream from IPNC
    comment         : 2?videoCodecType=H.264
  Duration: N/A, start: 0.000000, bitrate: N/A
    Stream #0:0: Video: h264 (Baseline), yuv420p, 1280x720, 15 fps, 15 tbr, 90k tbn, 180k tbc
    Stream #0:1: Audio: none, 8000 Hz, 1 channels
[mp4 @ 0x424bb80] Using AVStream.codec.time_base as a timebase hint to the muxer is deprecated. Set AVStream.time_base instead.
Output #0, segment, to '/home/camera/www/videos/tmp/113/113-%02d.mp4':
  Metadata:
    title           : RTSP/RTP stream from IPNC
    comment         : 2?videoCodecType=H.264
    encoder         : Lavf55.48.100
    Stream #0:0: Video: h264, yuv420p, 1280x720, q=2-31, 15 fps, 90k tbn, 90k tbc
Stream mapping:
  Stream #0:0 -> #0:0 (copy)
Press [q] to stop, [?] for help
[segment @ 0x424aca0] Non-monotonous DTS in output stream 0:0; previous: 0, current: 0; changing to 1. This may result in incorrect timestamps in the output file.
frame=   90 fps=0.0 q=-1.0 size=N/A time=00:00:05.86 bitrate=N/A    frame=   98 fps= 96 q=-1.0 size=N/A time=00:00:06.40 bitrate=N/A    frame=  106 fps= 68 q=-1.0 size=N/A time=00:00:06.93 bitrate=N/A    frame=  113 fps= 54 q=-1.0 size=N/A time=00:00:07.40 bitrate=N/A    frame=  122 fps= 46 q=-1.0 size=N/A time=00:00:08.00 bitrate=N/A    frame=  130 fps= 41 q=-1.0 size=N/A time=00:00:08.53 bitrate=N/A    frame=  138 fps= 37 q=-1.0 size=N/A time=00:00:09.06 bitrate=N/A    frame=  146 fps= 34 q=-1.0 size=N/A time=00:00:09.60 bitrate=N/A    frame=  154 fps= 32 q=-1.0 size=N/A time=00:00:10.13 bitrate=N/A    frame=  161 fps= 31 q=-1.0 size=N/A time=00:00:10.60 bitrate=N/A    frame=  169 fps= 29 q=-1.0 size=N/A time=00:00:11.13 bitrate=N/A    frame=  177 fps= 28 q=-1.0 size=N/A time=00:00:11.66 bitrate=N/A    frame=  184 fps= 27 q=-1.0 size=N/A time=00:00:12.13 bitrate=N/A    frame=  192 fps= 26 q=-1.0 size=N/A time=00:00:12.66 bitrate=N/A    frame=  201 fps= 26 q=-1.0 size=N/A time=00:00:13.26 bitrate=N/A    frame=  209 fps= 25 q=-1.0 size=N/A time=00:00:13.80 bitrate=N/A    frame=  216 fps= 24 q=-1.0 size=N/A time=00:00:14.26 bitrate=N/A    frame=  224 fps= 24 q=-1.0 size=N/A time=00:00:14.80 bitrate=N/A    frame=  232 fps= 23 q=-1.0 size=N/A time=00:00:15.33 bitrate=N/A    frame=  240 fps= 23 q=-1.0 size=N/A time=00:00:15.86 bitrate=N/A    frame=  247 fps= 22 q=-1.0 size=N/A time=00:00:16.33 bitrate=N/A    frame=  255 fps= 22 q=-1.0 size=N/A time=00:00:16.86 bitrate=N/A    frame=  263 fps= 22 q=-1.0 size=N/A time=00:00:17.40 bitrate=N/A    frame=  270 fps= 22 q=-1.0 size=N/A time=00:00:17.86 bitrate=N/A    frame=  278 fps= 21 q=-1.0 size=N/A time=00:00:18.40 bitrate=N/A    frame=  286 fps= 21 q=-1.0 size=N/A time=00:00:18.93 bitrate=N/A    frame=  295 fps= 21 q=-1.0 size=N/A time=00:00:19.53 bitrate=N/A    frame=  303 fps= 21 q=-1.0 size=N/A time=00:00:20.06 bitrate=N/A    frame=  311 fps= 20 q=-1.0 size=N/A time=00:00:20.60 bitrate=N/A    frame=  319 fps= 20 q=-1.0 size=N/A time=00:00:21.13 bitrate=N/A    frame=  328 fps= 20 q=-1.0 size=N/A time=00:00:21.73 bitrate=N/A    frame=  335 fps= 20 q=-1.0 size=N/A time=00:00:22.20 bitrate=N/A    frame=  343 fps= 20 q=-1.0 size=N/A time=00:00:22.73 bitrate=N/A    frame=  351 fps= 20 q=-1.0 size=N/A time=00:00:23.26 bitrate=N/A    frame=  360 fps= 19 q=-1.0 size=N/A time=00:00:23.86 bitrate=N/A    frame=  368 fps= 19 q=-1.0 size=N/A time=00:00:24.40 bitrate=N/A    frame=  376 fps= 19 q=-1.0 size=N/A time=00:00:24.93 bitrate=N/A    frame=  384 fps= 19 q=-1.0 size=N/A time=00:00:25.46 bitrate=N/A    frame=  391 fps= 19 q=-1.0 size=N/A time=00:00:25.93 bitrate=N/A    frame=  400 fps= 19 q=-1.0 size=N/A time=00:00:26.53 bitrate=N/A    frame=  408 fps= 19 q=-1.0 size=N/A time=00:00:27.06 bitrate=N/A    frame=  416 fps= 19 q=-1.0 size=N/A time=00:00:27.60 bitrate=N/A    frame=  424 fps= 19 q=-1.0 size=N/A time=00:00:28.13 bitrate=N/A    frame=  432 fps= 19 q=-1.0 size=N/A time=00:00:28.66 bitrate=N/A    frame=  439 fps= 18 q=-1.0 size=N/A time=00:00:29.13 bitrate=N/A    frame=  448 fps= 18 q=-1.0 size=N/A time=00:00:29.73 bitrate=N/A    frame=  456 fps= 18 q=-1.0 size=N/A time=00:00:30.26 bitrate=N/A    frame=  464 fps= 18 q=-1.0 size=N/A time=00:00:30.80 bitrate=N/A    frame=  472 fps= 18 q=-1.0 size=N/A time=00:00:31.33 bitrate=N/A    frame=  482 fps= 18 q=-1.0 size=N/A time=00:00:32.00 bitrate=N/A    frame=  489 fps= 18 q=-1.0 size=N/A time=00:00:32.46 bitrate=N/A    frame=  497 fps= 18 q=-1.0 size=N/A time=00:00:33.00 bitrate=N/A    frame=  505 fps= 18 q=-1.0 size=N/A time=00:00:33.53 bitrate=N/A    frame=  513 fps= 18 q=-1.0 size=N/A time=00:00:34.06 bitrate=N/A    frame=  522 fps= 18 q=-1.0 size=N/A time=00:00:34.66 bitrate=N/A    frame=  530 fps= 18 q=-1.0 size=N/A time=00:00:35.20 bitrate=N/A    frame=  537 fps= 18 q=-1.0 size=N/A time=00:00:35.66 bitrate=N/A    frame=  545 fps= 18 q=-1.0 size=N/A time=00:00:36.20 bitrate=N/A    frame=  553 fps= 18 q=-1.0 size=N/A time=00:00:36.73 bitrate=N/A    frame=  561 fps= 18 q=-1.0 size=N/A time=00:00:37.26 bitrate=N/A    frame=  568 fps= 18 q=-1.0 size=N/A time=00:00:37.73 bitrate=N/A    frame=  578 fps= 18 q=-1.0 size=N/A time=00:00:38.40 bitrate=N/A    frame=  585 fps= 17 q=-1.0 size=N/A time=00:00:38.86 bitrate=N/A    frame=  593 fps= 17 q=-1.0 size=N/A time=00:00:39.40 bitrate=N/A    frame=  601 fps= 17 q=-1.0 size=N/A time=00:00:39.93 bitrate=N/A    frame=  609 fps= 17 q=-1.0 size=N/A time=00:00:40.46 bitrate=N/A    frame=  618 fps= 17 q=-1.0 size=N/A time=00:00:41.06 bitrate=N/A    frame=  626 fps= 17 q=-1.0 size=N/A time=00:00:41.60 bitrate=N/A    frame=  634 fps= 17 q=-1.0 size=N/A time=00:00:42.13 bitrate=N/A    frame=  642 fps= 17 q=-1.0 size=N/A time=00:00:42.66 bitrate=N/A    frame=  649 fps= 17 q=-1.0 size=N/A time=00:00:43.13 bitrate=N/A    frame=  657 fps= 17 q=-1.0 size=N/A time=00:00:43.66 bitrate=N/A    frame=  664 fps= 17 q=-1.0 size=N/A time=00:00:44.13 bitrate=N/A    frame=  674 fps= 17 q=-1.0 size=N/A time=00:00:44.80 bitrate=N/A    frame=  681 fps= 17 q=-1.0 size=N/A time=00:00:45.26 bitrate=N/A    frame=  689 fps= 17 q=-1.0 size=N/A time=00:00:45.80 bitrate=N/A    frame=  697 fps= 17 q=-1.0 size=N/A time=00:00:46.33 bitrate=N/A    frame=  705 fps= 17 q=-1.0 size=N/A time=00:00:46.86 bitrate=N/A    frame=  713 fps= 17 q=-1.0 size=N/A time=00:00:47.40 bitrate=N/A    frame=  722 fps= 17 q=-1.0 size=N/A time=00:00:48.00 bitrate=N/A    frame=  729 fps= 17 q=-1.0 size=N/A time=00:00:48.46 bitrate=N/A    frame=  737 fps= 17 q=-1.0 size=N/A time=00:00:49.00 bitrate=N/A    frame=  745 fps= 17 q=-1.0 size=N/A time=00:00:49.53 bitrate=N/A    frame=  753 fps= 17 q=-1.0 size=N/A time=00:00:50.06 bitrate=N/A    frame=  762 fps= 17 q=-1.0 size=N/A time=00:00:50.66 bitrate=N/A    frame=  770 fps= 17 q=-1.0 size=N/A time=00:00:51.20 bitrate=N/A    frame=  778 fps= 17 q=-1.0 size=N/A time=00:00:51.73 bitrate=N/A    frame=  785 fps= 17 q=-1.0 size=N/A time=00:00:52.20 bitrate=N/A    frame=  793 fps= 17 q=-1.0 size=N/A time=00:00:52.73 bitrate=N/A    frame=  800 fps= 17 q=-1.0 size=N/A time=00:00:53.20 bitrate=N/A    frame=  808 fps= 17 q=-1.0 size=N/A time=00:00:53.73 bitrate=N/A    frame=  818 fps= 17 q=-1.0 size=N/A time=00:00:54.40 bitrate=N/A    frame=  826 fps= 17 q=-1.0 size=N/A time=00:00:54.93 bitrate=N/A    frame=  834 fps= 17 q=-1.0 size=N/A time=00:00:55.46 bitrate=N/A    frame=  842 fps= 17 q=-1.0 size=N/A time=00:00:56.00 bitrate=N/A    frame=  850 fps= 17 q=-1.0 size=N/A time=00:00:56.53 bitrate=N/A    frame=  858 fps= 17 q=-1.0 size=N/A time=00:00:57.06 bitrate=N/A    frame=  866 fps= 17 q=-1.0 size=N/A time=00:00:57.60 bitrate=N/A    frame=  874 fps= 17 q=-1.0 size=N/A time=00:00:58.13 bitrate=N/A    frame=  882 fps= 17 q=-1.0 size=N/A time=00:00:58.66 bitrate=N/A    frame=  889 fps= 17 q=-1.0 size=N/A time=00:00:59.13 bitrate=N/A    frame=  898 fps= 17 q=-1.0 size=N/A time=00:00:59.73 bitrate=N/A    frame=  907 fps= 17 q=-1.0 size=N/A time=00:01:00.33 bitrate=N/A    frame=  914 fps= 16 q=-1.0 size=N/A time=00:01:00.80 bitrate=N/A    frame=  923 fps= 16 q=-1.0 size=N/A time=00:01:01.40 bitrate=N/A    frame=  930 fps= 16 q=-1.0 size=N/A time=00:01:01.86 bitrate=N/A    frame=  939 fps= 16 q=-1.0 size=N/A time=00:01:02.46 bitrate=N/A    frame=  947 fps= 16 q=-1.0 size=N/A time=00:01:03.00 bitrate=N/A    frame=  955 fps= 16 q=-1.0 size=N/A time=00:01:03.53 bitrate=N/A    frame=  963 fps= 16 q=-1.0 size=N/A time=00:01:04.06 bitrate=N/A    frame=  971 fps= 16 q=-1.0 size=N/A time=00:01:04.60 bitrate=N/A    frame=  979 fps= 16 q=-1.0 size=N/A time=00:01:05.13 bitrate=N/A    frame=  987 fps= 16 q=-1.0 size=N/A time=00:01:05.66 bitrate=N/A    frame=  996 fps= 16 q=-1.0 size=N/A time=00:01:06.26 bitrate=N/A    frame= 1004 fps= 16 q=-1.0 size=N/A time=00:01:06.80 bitrate=N/A    frame= 1012 fps= 16 q=-1.0 size=N/A time=00:01:07.33 bitrate=N/A    frame= 1020 fps= 16 q=-1.0 size=N/A time=00:01:07.86 bitrate=N/A    frame= 1029 fps= 16 q=-1.0 size=N/A time=00:01:08.46 bitrate=N/A    frame= 1037 fps= 16 q=-1.0 size=N/A time=00:01:09.00 bitrate=N/A    frame= 1044 fps= 16 q=-1.0 size=N/A time=00:01:09.46 bitrate=N/A    frame= 1052 fps= 16 q=-1.0 size=N/A time=00:01:10.00 bitrate=N/A    frame= 1060 fps= 16 q=-1.0 size=N/A time=00:01:10.53 bitrate=N/A    frame= 1068 fps= 16 q=-1.0 size=N/A time=00:01:11.06 bitrate=N/A    frame= 1077 fps= 16 q=-1.0 size=N/A time=00:01:11.66 bitrate=N/A    frame= 1084 fps= 16 q=-1.0 size=N/A time=00:01:12.13 bitrate=N/A    frame= 1092 fps= 16 q=-1.0 size=N/A time=00:01:12.66 bitrate=N/A    frame= 1100 fps= 16 q=-1.0 size=N/A time=00:01:13.20 bitrate=N/A    frame= 1107 fps= 16 q=-1.0 size=N/A time=00:01:13.66 bitrate=N/A    frame= 1115 fps= 16 q=-1.0 size=N/A time=00:01:14.20 bitrate=N/A    frame= 1122 fps= 16 q=-1.0 size=N/A time=00:01:14.66 bitrate=N/A    frame= 1131 fps= 16 q=-1.0 size=N/A time=00:01:15.26 bitrate=N/A    frame= 1139 fps= 16 q=-1.0 size=N/A time=00:01:15.80 bitrate=N/A    frame= 1146 fps= 16 q=-1.0 size=N/A time=00:01:16.26 bitrate=N/A    frame= 1154 fps= 16 q=-1.0 size=N/A time=00:01:16.80 bitrate=N/A    frame= 1162 fps= 16 q=-1.0 size=N/A time=00:01:17.33 bitrate=N/A    frame= 1170 fps= 16 q=-1.0 size=N/A time=00:01:17.86 bitrate=N/A    frame= 1177 fps= 16 q=-1.0 size=N/A time=00:01:18.33 bitrate=N/A    frame= 1187 fps= 16 q=-1.0 size=N/A time=00:01:19.00 bitrate=N/A    frame= 1194 fps= 16 q=-1.0 size=N/A time=00:01:19.46 bitrate=N/A    frame= 1203 fps= 16 q=-1.0 size=N/A time=00:01:20.06 bitrate=N/A    frame= 1212 fps= 16 q=-1.0 size=N/A time=00:01:20.66 bitrate=N/A    frame= 1219 fps= 16 q=-1.0 size=N/A time=00:01:21.13 bitrate=N/A    frame= 1227 fps= 16 q=-1.0 size=N/A time=00:01:21.66 bitrate=N/A    frame= 1235 fps= 16 q=-1.0 size=N/A time=00:01:22.20 bitrate=N/A    frame= 1243 fps= 16 q=-1.0 size=N/A time=00:01:22.73 bitrate=N/A    frame= 1251 fps= 16 q=-1.0 size=N/A time=00:01:23.26 bitrate=N/A    frame= 1260 fps= 16 q=-1.0 size=N/A time=00:01:23.86 bitrate=N/A    frame= 1267 fps= 16 q=-1.0 size=N/A time=00:01:24.33 bitrate=N/A    frame= 1275 fps= 16 q=-1.0 size=N/A time=00:01:24.86 bitrate=N/A    frame= 1284 fps= 16 q=-1.0 size=N/A time=00:01:25.46 bitrate=N/A    frame= 1292 fps= 16 q=-1.0 size=N/A time=00:01:26.00 bitrate=N/A    frame= 1300 fps= 16 q=-1.0 size=N/A time=00:01:26.53 bitrate=N/A    frame= 1308 fps= 16 q=-1.0 size=N/A time=00:01:27.06 bitrate=N/A    frame= 1317 fps= 16 q=-1.0 size=N/A time=00:01:27.66 bitrate=N/A    frame= 1325 fps= 16 q=-1.0 size=N/A time=00:01:28.20 bitrate=N/A    frame= 1332 fps= 16 q=-1.0 size=N/A time=00:01:28.66 bitrate=N/A    frame= 1341 fps= 16 q=-1.0 size=N/A time=00:01:29.26 bitrate=N/A    frame= 1348 fps= 16 q=-1.0 size=N/A time=00:01:29.73 bitrate=N/A    frame= 1358 fps= 16 q=-1.0 size=N/A time=00:01:30.40 bitrate=N/A    frame= 1365 fps= 16 q=-1.0 size=N/A time=00:01:30.86 bitrate=N/A    frame= 1373 fps= 16 q=-1.0 size=N/A time=00:01:31.40 bitrate=N/A    frame= 1381 fps= 16 q=-1.0 size=N/A time=00:01:31.93 bitrate=N/A    frame= 1389 fps= 16 q=-1.0 size=N/A time=00:01:32.46 bitrate=N/A    frame= 1397 fps= 16 q=-1.0 size=N/A time=00:01:33.00 bitrate=N/A    frame= 1406 fps= 16 q=-1.0 size=N/A time=00:01:33.60 bitrate=N/A    frame= 1413 fps= 16 q=-1.0 size=N/A time=00:01:34.06 bitrate=N/A    frame= 1421 fps= 16 q=-1.0 size=N/A time=00:01:34.60 bitrate=N/A    frame= 1429 fps= 16 q=-1.0 size=N/A time=00:01:35.13 bitrate=N/A    frame= 1437 fps= 16 q=-1.0 size=N/A time=00:01:35.66 bitrate=N/A    frame= 1444 fps= 16 q=-1.0 size=N/A time=00:01:36.13 bitrate=N/A    frame= 1453 fps= 16 q=-1.0 size=N/A time=00:01:36.73 bitrate=N/A    frame= 1461 fps= 16 q=-1.0 size=N/A time=00:01:37.26 bitrate=N/A    frame= 1469 fps= 16 q=-1.0 size=N/A time=00:01:37.80 bitrate=N/A    frame= 1477 fps= 16 q=-1.0 size=N/A time=00:01:38.33 bitrate=N/A    frame= 1484 fps= 16 q=-1.0 size=N/A time=00:01:38.80 bitrate=N/A    frame= 1492 fps= 16 q=-1.0 size=N/A time=00:01:39.33 bitrate=N/A    frame= 1500 fps= 16 q=-1.0 size=N/A time=00:01:39.86 bitrate=N/A    frame= 1508 fps= 16 q=-1.0 size=N/A time=00:01:40.40 bitrate=N/A    frame= 1517 fps= 16 q=-1.0 size=N/A time=00:01:41.00 bitrate=N/A    frame= 1524 fps= 16 q=-1.0 size=N/A time=00:01:41.46 bitrate=N/A    frame= 1533 fps= 16 q=-1.0 size=N/A time=00:01:42.06 bitrate=N/A    frame= 1540 fps= 16 q=-1.0 size=N/A time=00:01:42.53 bitrate=N/A    frame= 1549 fps= 16 q=-1.0 size=N/A time=00:01:43.13 bitrate=N/A    frame= 1557 fps= 16 q=-1.0 size=N/A time=00:01:43.66 bitrate=N/A    frame= 1565 fps= 16 q=-1.0 size=N/A time=00:01:44.20 bitrate=N/A    frame= 1573 fps= 16 q=-1.0 size=N/A time=00:01:44.73 bitrate=N/A    frame= 1581 fps= 16 q=-1.0 size=N/A time=00:01:45.26 bitrate=N/A    frame= 1590 fps= 16 q=-1.0 size=N/A time=00:01:45.86 bitrate=N/A    frame= 1598 fps= 16 q=-1.0 size=N/A time=00:01:46.40 bitrate=N/A    frame= 1606 fps= 16 q=-1.0 size=N/A time=00:01:46.93 bitrate=N/A    frame= 1614 fps= 16 q=-1.0 size=N/A time=00:01:47.46 bitrate=N/A    frame= 1621 fps= 16 q=-1.0 size=N/A time=00:01:47.93 bitrate=N/A    frame= 1629 fps= 16 q=-1.0 size=N/A time=00:01:48.46 bitrate=N/A    frame= 1636 fps= 16 q=-1.0 size=N/A time=00:01:48.93 bitrate=N/A    frame= 1644 fps= 16 q=-1.0 size=N/A time=00:01:49.46 bitrate=N/A    frame= 1652 fps= 16 q=-1.0 size=N/A time=00:01:50.00 bitrate=N/A    frame= 1661 fps= 16 q=-1.0 size=N/A time=00:01:50.60 bitrate=N/A    frame= 1668 fps= 16 q=-1.0 size=N/A time=00:01:51.06 bitrate=N/A    frame= 1676 fps= 16 q=-1.0 size=N/A time=00:01:51.60 bitrate=N/A    frame= 1684 fps= 16 q=-1.0 size=N/A time=00:01:52.13 bitrate=N/A    frame= 1692 fps= 16 q=-1.0 size=N/A time=00:01:52.66 bitrate=N/A    frame= 1700 fps= 16 q=-1.0 size=N/A time=00:01:53.20 bitrate=N/A    frame= 1708 fps= 16 q=-1.0 size=N/A time=00:01:53.73 bitrate=N/A    frame= 1716 fps= 16 q=-1.0 size=N/A time=00:01:54.26 bitrate=N/A    frame= 1724 fps= 16 q=-1.0 size=N/A time=00:01:54.80 bitrate=N/A    frame= 1732 fps= 16 q=-1.0 size=N/A time=00:01:55.33 bitrate=N/A    frame= 1740 fps= 16 q=-1.0 size=N/A time=00:01:55.86 bitrate=N/A    frame= 1747 fps= 16 q=-1.0 size=N/A time=00:01:56.33 bitrate=N/A    frame= 1755 fps= 16 q=-1.0 size=N/A time=00:01:56.86 bitrate=N/A    frame= 1764 fps= 16 q=-1.0 size=N/A time=00:01:57.46 bitrate=N/A    frame= 1772 fps= 16 q=-1.0 size=N/A time=00:01:58.00 bitrate=N/A    frame= 1780 fps= 16 q=-1.0 size=N/A time=00:01:58.53 bitrate=N/A    frame= 1789 fps= 16 q=-1.0 size=N/A time=00:01:59.13 bitrate=N/A    frame= 1797 fps= 16 q=-1.0 size=N/A time=00:01:59.66 bitrate=N/A    frame= 1805 fps= 16 q=-1.0 size=N/A time=00:02:00.20 bitrate=N/A    frame= 1812 fps= 16 q=-1.0 size=N/A time=00:02:00.66 bitrate=N/A    frame= 1821 fps= 16 q=-1.0 size=N/A time=00:02:01.26 bitrate=N/A    frame= 1828 fps= 16 q=-1.0 size=N/A time=00:02:01.73 bitrate=N/A    frame= 1836 fps= 16 q=-1.0 size=N/A time=00:02:02.26 bitrate=N/A    frame= 1844 fps= 16 q=-1.0 size=N/A time=00:02:02.80 bitrate=N/A    frame= 1852 fps= 16 q=-1.0 size=N/A time=00:02:03.33 bitrate=N/A    frame= 1860 fps= 16 q=-1.0 size=N/A time=00:02:03.86 bitrate=N/A    frame= 1868 fps= 16 q=-1.0 size=N/A time=00:02:04.40 bitrate=N/A    frame= 1875 fps= 16 q=-1.0 size=N/A time=00:02:04.86 bitrate=N/A    frame= 1884 fps= 16 q=-1.0 size=N/A time=00:02:05.46 bitrate=N/A    frame= 1891 fps= 16 q=-1.0 size=N/A time=00:02:05.93 bitrate=N/A    frame= 1899 fps= 16 q=-1.0 size=N/A time=00:02:06.46 bitrate=N/A    frame= 1907 fps= 16 q=-1.0 size=N/A time=00:02:07.00 bitrate=N/A    frame= 1915 fps= 16 q=-1.0 size=N/A time=00:02:07.53 bitrate=N/A    frame= 1923 fps= 16 q=-1.0 size=N/A time=00:02:08.06 bitrate=N/A    frame= 1932 fps= 16 q=-1.0 size=N/A time=00:02:08.66 bitrate=N/A    frame= 1940 fps= 16 q=-1.0 size=N/A time=00:02:09.20 bitrate=N/A    frame= 1949 fps= 16 q=-1.0 size=N/A time=00:02:09.80 bitrate=N/A    frame= 1956 fps= 16 q=-1.0 size=N/A time=00:02:10.26 bitrate=N/A    frame= 1964 fps= 16 q=-1.0 size=N/A time=00:02:10.80 bitrate=N/A    frame= 1971 fps= 16 q=-1.0 size=N/A time=00:02:11.26 bitrate=N/A    frame= 1980 fps= 16 q=-1.0 size=N/A time=00:02:11.86 bitrate=N/A    frame= 1988 fps= 16 q=-1.0 size=N/A time=00:02:12.40 bitrate=N/A    frame= 1996 fps= 16 q=-1.0 size=N/A time=00:02:12.93 bitrate=N/A    frame= 2004 fps= 16 q=-1.0 size=N/A time=00:02:13.46 bitrate=N/A    frame= 2011 fps= 16 q=-1.0 size=N/A time=00:02:13.93 bitrate=N/A    frame= 2019 fps= 16 q=-1.0 size=N/A time=00:02:14.46 bitrate=N/A    frame= 2028 fps= 16 q=-1.0 size=N/A time=00:02:15.06 bitrate=N/A    frame= 2035 fps= 16 q=-1.0 size=N/A time=00:02:15.53 bitrate=N/A    frame= 2043 fps= 16 q=-1.0 size=N/A time=00:02:16.06 bitrate=N/A    frame= 2052 fps= 16 q=-1.0 size=N/A time=00:02:16.66 bitrate=N/A    frame= 2059 fps= 16 q=-1.0 size=N/A time=00:02:17.13 bitrate=N/A    frame= 2067 fps= 16 q=-1.0 size=N/A time=00:02:17.66 bitrate=N/A    frame= 2076 fps= 16 q=-1.0 size=N/A time=00:02:18.26 bitrate=N/A    frame= 2084 fps= 16 q=-1.0 size=N/A time=00:02:18.80 bitrate=N/A    frame= 2092 fps= 16 q=-1.0 size=N/A time=00:02:19.33 bitrate=N/A    frame= 2100 fps= 16 q=-1.0 size=N/A time=00:02:19.86 bitrate=N/A    frame= 2107 fps= 16 q=-1.0 size=N/A time=00:02:20.33 bitrate=N/A    frame= 2116 fps= 16 q=-1.0 size=N/A time=00:02:20.93 bitrate=N/A    frame= 2125 fps= 16 q=-1.0 size=N/A time=00:02:21.53 bitrate=N/A    frame= 2133 fps= 16 q=-1.0 size=N/A time=00:02:22.06 bitrate=N/A    frame= 2141 fps= 16 q=-1.0 size=N/A time=00:02:22.60 bitrate=N/A    frame= 2149 fps= 16 q=-1.0 size=N/A time=00:02:23.13 bitrate=N/A    frame= 2158 fps= 16 q=-1.0 size=N/A time=00:02:23.73 bitrate=N/A    frame= 2166 fps= 16 q=-1.0 size=N/A time=00:02:24.26 bitrate=N/A    frame= 2175 fps= 16 q=-1.0 size=N/A time=00:02:24.86 bitrate=N/A    frame= 2182 fps= 16 q=-1.0 size=N/A time=00:02:25.33 bitrate=N/A    frame= 2191 fps= 16 q=-1.0 size=N/A time=00:02:25.93 bitrate=N/A    frame= 2199 fps= 16 q=-1.0 size=N/A time=00:02:26.46 bitrate=N/A    frame= 2208 fps= 16 q=-1.0 size=N/A time=00:02:27.06 bitrate=N/A    frame= 2216 fps= 16 q=-1.0 size=N/A time=00:02:27.60 bitrate=N/A    frame= 2224 fps= 16 q=-1.0 size=N/A time=00:02:28.13 bitrate=N/A    frame= 2232 fps= 16 q=-1.0 size=N/A time=00:02:28.66 bitrate=N/A    frame= 2240 fps= 16 q=-1.0 size=N/A time=00:02:29.20 bitrate=N/A    frame= 2249 fps= 16 q=-1.0 size=N/A time=00:02:29.80 bitrate=N/A    frame= 2256 fps= 16 q=-1.0 size=N/A time=00:02:30.26 bitrate=N/A    frame= 2264 fps= 16 q=-1.0 size=N/A time=00:02:30.80 bitrate=N/A    frame= 2272 fps= 16 q=-1.0 size=N/A time=00:02:31.33 bitrate=N/A    frame= 2281 fps= 16 q=-1.0 size=N/A time=00:02:31.93 bitrate=N/A    frame= 2288 fps= 16 q=-1.0 size=N/A time=00:02:32.40 bitrate=N/A    frame= 2297 fps= 16 q=-1.0 size=N/A time=00:02:33.00 bitrate=N/A    frame= 2305 fps= 16 q=-1.0 size=N/A time=00:02:33.53 bitrate=N/A    frame= 2313 fps= 16 q=-1.0 size=N/A time=00:02:34.06 bitrate=N/A    frame= 2320 fps= 16 q=-1.0 size=N/A time=00:02:34.53 bitrate=N/A    frame= 2328 fps= 16 q=-1.0 size=N/A time=00:02:35.06 bitrate=N/A    frame= 2337 fps= 16 q=-1.0 size=N/A time=00:02:35.66 bitrate=N/A    frame= 2343 fps= 16 q=-1.0 size=N/A time=00:02:36.06 bitrate=N/A    frame= 2352 fps= 16 q=-1.0 size=N/A time=00:02:36.66 bitrate=N/A    frame= 2360 fps= 16 q=-1.0 size=N/A time=00:02:37.20 bitrate=N/A    frame= 2368 fps= 16 q=-1.0 size=N/A time=00:02:37.73 bitrate=N/A    frame= 2377 fps= 16 q=-1.0 size=N/A time=00:02:38.33 bitrate=N/A    frame= 2384 fps= 16 q=-1.0 size=N/A time=00:02:38.80 bitrate=N/A    frame= 2393 fps= 16 q=-1.0 size=N/A time=00:02:39.40 bitrate=N/A    frame= 2401 fps= 16 q=-1.0 size=N/A time=00:02:39.93 bitrate=N/A    frame= 2410 fps= 16 q=-1.0 size=N/A time=00:02:40.53 bitrate=N/A    frame= 2418 fps= 16 q=-1.0 size=N/A time=00:02:41.06 bitrate=N/A    frame= 2426 fps= 16 q=-1.0 size=N/A time=00:02:41.60 bitrate=N/A    frame= 2433 fps= 16 q=-1.0 size=N/A time=00:02:42.06 bitrate=N/A    frame= 2442 fps= 16 q=-1.0 size=N/A time=00:02:42.66 bitrate=N/A    frame= 2449 fps= 16 q=-1.0 size=N/A time=00:02:43.13 bitrate=N/A    frame= 2458 fps= 16 q=-1.0 size=N/A time=00:02:43.73 bitrate=N/A    frame= 2465 fps= 16 q=-1.0 size=N/A time=00:02:44.20 bitrate=N/A    frame= 2473 fps= 16 q=-1.0 size=N/A time=00:02:44.73 bitrate=N/A    frame= 2481 fps= 16 q=-1.0 size=N/A time=00:02:45.26 bitrate=N/A    frame= 2489 fps= 16 q=-1.0 size=N/A time=00:02:45.80 bitrate=N/A    frame= 2496 fps= 16 q=-1.0 size=N/A time=00:02:46.26 bitrate=N/A    frame= 2505 fps= 16 q=-1.0 size=N/A time=00:02:46.86 bitrate=N/A    frame= 2512 fps= 16 q=-1.0 size=N/A time=00:02:47.33 bitrate=N/A    frame= 2521 fps= 16 q=-1.0 size=N/A time=00:02:47.93 bitrate=N/A    frame= 2529 fps= 16 q=-1.0 size=N/A time=00:02:48.46 bitrate=N/A    frame= 2537 fps= 16 q=-1.0 size=N/A time=00:02:49.00 bitrate=N/A    frame= 2544 fps= 16 q=-1.0 size=N/A time=00:02:49.46 bitrate=N/A    frame= 2552 fps= 16 q=-1.0 size=N/A time=00:02:50.00 bitrate=N/A    frame= 2560 fps= 16 q=-1.0 size=N/A time=00:02:50.53 bitrate=N/A    frame= 2568 fps= 16 q=-1.0 size=N/A time=00:02:51.06 bitrate=N/A    frame= 2576 fps= 16 q=-1.0 size=N/A time=00:02:51.60 bitrate=N/A    frame= 2583 fps= 16 q=-1.0 size=N/A time=00:02:52.06 bitrate=N/A    frame= 2591 fps= 16 q=-1.0 size=N/A time=00:02:52.60 bitrate=N/A    frame= 2599 fps= 15 q=-1.0 size=N/A time=00:02:53.13 bitrate=N/A    frame= 2607 fps= 15 q=-1.0 size=N/A time=00:02:53.66 bitrate=N/A    frame= 2615 fps= 15 q=-1.0 size=N/A time=00:02:54.20 bitrate=N/A    frame= 2624 fps= 15 q=-1.0 size=N/A time=00:02:54.80 bitrate=N/A    frame= 2631 fps= 15 q=-1.0 size=N/A time=00:02:55.26 bitrate=N/A    frame= 2640 fps= 15 q=-1.0 size=N/A time=00:02:55.86 bitrate=N/A    frame= 2648 fps= 15 q=-1.0 size=N/A time=00:02:56.40 bitrate=N/A    frame= 2655 fps= 15 q=-1.0 size=N/A time=00:02:56.86 bitrate=N/A    frame= 2664 fps= 15 q=-1.0 size=N/A time=00:02:57.46 bitrate=N/A    frame= 2673 fps= 15 q=-1.0 size=N/A time=00:02:58.06 bitrate=N/A    frame= 2681 fps= 15 q=-1.0 size=N/A time=00:02:58.60 bitrate=N/A    frame= 2688 fps= 15 q=-1.0 size=N/A time=00:02:59.06 bitrate=N/A    frame= 2696 fps= 15 q=-1.0 size=N/A time=00:02:59.60 bitrate=N/A    frame= 2704 fps= 15 q=-1.0 size=N/A time=00:03:00.13 bitrate=N/A    frame= 2713 fps= 15 q=-1.0 size=N/A time=00:03:00.73 bitrate=N/A    frame= 2721 fps= 15 q=-1.0 size=N/A time=00:03:01.26 bitrate=N/A    frame= 2729 fps= 15 q=-1.0 size=N/A time=00:03:01.80 bitrate=N/A    frame= 2736 fps= 15 q=-1.0 size=N/A time=00:03:02.26 bitrate=N/A    frame= 2745 fps= 15 q=-1.0 size=N/A time=00:03:02.86 bitrate=N/A    frame= 2752 fps= 15 q=-1.0 size=N/A time=00:03:03.33 bitrate=N/A    frame= 2761 fps= 15 q=-1.0 size=N/A time=00:03:03.93 bitrate=N/A    frame= 2769 fps= 15 q=-1.0 size=N/A time=00:03:04.46 bitrate=N/A    frame= 2777 fps= 15 q=-1.0 size=N/A time=00:03:05.00 bitrate=N/A    frame= 2785 fps= 15 q=-1.0 size=N/A time=00:03:05.53 bitrate=N/A    frame= 2793 fps= 15 q=-1.0 size=N/A time=00:03:06.06 bitrate=N/A    frame= 2801 fps= 15 q=-1.0 size=N/A time=00:03:06.60 bitrate=N/A    frame= 2810 fps= 15 q=-1.0 size=N/A time=00:03:07.20 bitrate=N/A    frame= 2817 fps= 15 q=-1.0 size=N/A time=00:03:07.66 bitrate=N/A    frame= 2825 fps= 15 q=-1.0 size=N/A time=00:03:08.20 bitrate=N/A    frame= 2833 fps= 15 q=-1.0 size=N/A time=00:03:08.73 bitrate=N/A    frame= 2842 fps= 15 q=-1.0 size=N/A time=00:03:09.33 bitrate=N/A    frame= 2852 fps= 15 q=-1.0 size=N/A time=00:03:10.00 bitrate=N/A    frame= 2859 fps= 15 q=-1.0 size=N/A time=00:03:10.46 bitrate=N/A    frame= 2868 fps= 15 q=-1.0 size=N/A time=00:03:11.06 bitrate=N/A    frame= 2875 fps= 15 q=-1.0 size=N/A time=00:03:11.53 bitrate=N/A    frame= 2885 fps= 15 q=-1.0 size=N/A time=00:03:12.20 bitrate=N/A    frame= 2892 fps= 15 q=-1.0 size=N/A time=00:03:12.66 bitrate=N/A    frame= 2900 fps= 15 q=-1.0 size=N/A time=00:03:13.20 bitrate=N/A    frame= 2907 fps= 15 q=-1.0 size=N/A time=00:03:13.66 bitrate=N/A    frame= 2916 fps= 15 q=-1.0 size=N/A time=00:03:14.26 bitrate=N/A    frame= 2924 fps= 15 q=-1.0 size=N/A time=00:03:14.80 bitrate=N/A    frame= 2933 fps= 15 q=-1.0 size=N/A time=00:03:15.40 bitrate=N/A    frame= 2940 fps= 15 q=-1.0 size=N/A time=00:03:15.86 bitrate=N/A    frame= 2949 fps= 15 q=-1.0 size=N/A time=00:03:16.46 bitrate=N/A    frame= 2956 fps= 15 q=-1.0 size=N/A time=00:03:16.93 bitrate=N/A    frame= 2964 fps= 15 q=-1.0 size=N/A time=00:03:17.46 bitrate=N/A    frame= 2972 fps= 15 q=-1.0 size=N/A time=00:03:18.00 bitrate=N/A    frame= 2981 fps= 15 q=-1.0 size=N/A time=00:03:18.60 bitrate=N/A    frame= 2988 fps= 15 q=-1.0 size=N/A time=00:03:19.06 bitrate=N/A    frame= 2997 fps= 15 q=-1.0 size=N/A time=00:03:19.66 bitrate=N/A    frame= 3004 fps= 15 q=-1.0 size=N/A time=00:03:20.13 bitrate=N/A    frame= 3013 fps= 15 q=-1.0 size=N/A time=00:03:20.73 bitrate=N/A    frame= 3021 fps= 15 q=-1.0 size=N/A time=00:03:21.26 bitrate=N/A    frame= 3029 fps= 15 q=-1.0 size=N/A time=00:03:21.80 bitrate=N/A    frame= 3037 fps= 15 q=-1.0 size=N/A time=00:03:22.33 bitrate=N/A    frame= 3046 fps= 15 q=-1.0 size=N/A time=00:03:22.93 bitrate=N/A    frame= 3053 fps= 15 q=-1.0 size=N/A time=00:03:23.40 bitrate=N/A    frame= 3060 fps= 15 q=-1.0 size=N/A time=00:03:23.86 bitrate=N/A    frame= 3068 fps= 15 q=-1.0 size=N/A time=00:03:24.40 bitrate=N/A    frame= 3076 fps= 15 q=-1.0 size=N/A time=00:03:24.93 bitrate=N/A    frame= 3084 fps= 15 q=-1.0 size=N/A time=00:03:25.46 bitrate=N/A    frame= 3093 fps= 15 q=-1.0 size=N/A time=00:03:26.06 bitrate=N/A    frame= 3101 fps= 15 q=-1.0 size=N/A time=00:03:26.60 bitrate=N/A    frame= 3109 fps= 15 q=-1.0 size=N/A time=00:03:27.13 bitrate=N/A    frame= 3117 fps= 15 q=-1.0 size=N/A time=00:03:27.66 bitrate=N/A    frame= 3126 fps= 15 q=-1.0 size=N/A time=00:03:28.26 bitrate=N/A    frame= 3133 fps= 15 q=-1.0 size=N/A time=00:03:28.73 bitrate=N/A    frame= 3142 fps= 15 q=-1.0 size=N/A time=00:03:29.33 bitrate=N/A    frame= 3149 fps= 15 q=-1.0 size=N/A time=00:03:29.80 bitrate=N/A    frame= 3157 fps= 15 q=-1.0 size=N/A time=00:03:30.33 bitrate=N/A    frame= 3165 fps= 15 q=-1.0 size=N/A time=00:03:30.86 bitrate=N/A    frame= 3173 fps= 15 q=-1.0 size=N/A time=00:03:31.40 bitrate=N/A    frame= 3181 fps= 15 q=-1.0 size=N/A time=00:03:31.93 bitrate=N/A    frame= 3190 fps= 15 q=-1.0 size=N/A time=00:03:32.53 bitrate=N/A    frame= 3200 fps= 15 q=-1.0 size=N/A time=00:03:33.20 bitrate=N/A    frame= 3208 fps= 15 q=-1.0 size=N/A time=00:03:33.73 bitrate=N/A    frame= 3216 fps= 15 q=-1.0 size=N/A time=00:03:34.26 bitrate=N/A    frame= 3224 fps= 15 q=-1.0 size=N/A time=00:03:34.80 bitrate=N/A    frame= 3232 fps= 15 q=-1.0 size=N/A time=00:03:35.33 bitrate=N/A    frame= 3240 fps= 15 q=-1.0 size=N/A time=00:03:35.86 bitrate=N/A    frame= 3248 fps= 15 q=-1.0 size=N/A time=00:03:36.40 bitrate=N/A    frame= 3255 fps= 15 q=-1.0 size=N/A time=00:03:36.86 bitrate=N/A    frame= 3264 fps= 15 q=-1.0 size=N/A time=00:03:37.46 bitrate=N/A    frame= 3272 fps= 15 q=-1.0 size=N/A time=00:03:38.00 bitrate=N/A    frame= 3280 fps= 15 q=-1.0 size=N/A time=00:03:38.53 bitrate=N/A    frame= 3288 fps= 15 q=-1.0 size=N/A time=00:03:39.06 bitrate=N/A    frame= 3296 fps= 15 q=-1.0 size=N/A time=00:03:39.60 bitrate=N/A    frame= 3304 fps= 15 q=-1.0 size=N/A time=00:03:40.13 bitrate=N/A    frame= 3312 fps= 15 q=-1.0 size=N/A time=00:03:40.66 bitrate=N/A    frame= 3320 fps= 15 q=-1.0 size=N/A time=00:03:41.20 bitrate=N/A    frame= 3328 fps= 15 q=-1.0 size=N/A time=00:03:41.73 bitrate=N/A    frame= 3336 fps= 15 q=-1.0 size=N/A time=00:03:42.26 bitrate=N/A    frame= 3344 fps= 15 q=-1.0 size=N/A time=00:03:42.80 bitrate=N/A    frame= 3352 fps= 15 q=-1.0 size=N/A time=00:03:43.33 bitrate=N/A    frame= 3360 fps= 15 q=-1.0 size=N/A time=00:03:43.86 bitrate=N/A    frame= 3368 fps= 15 q=-1.0 size=N/A time=00:03:44.40 bitrate=N/A    frame= 3376 fps= 15 q=-1.0 size=N/A time=00:03:44.93 bitrate=N/A    